<svg width="960" height="600" viewBox="0 0 960 600" fill="none" xmlns="http://www.w3.org/2000/svg">
  <rect width="960" height="600" rx="32" fill="#F5F0E8"/>
  <path d="M216 330C216 259.307 273.307 202 344 202H616C686.693 202 744 259.307 744 330V366C744 452.708 673.708 523 587 523H373C286.292 523 216 452.708 216 366V330Z" fill="#FFFFFF" stroke="#D6CDC0" stroke-width="10"/>
  <path d="M276 332H684V362C684 426.065 632.065 478 568 478H392C327.935 478 276 426.065 276 362V332Z" fill="#DED1BC"/>
  <path d="M678 188C678 157.072 703.072 132 734 132H752C782.928 132 808 157.072 808 188V252" stroke="#1A1A1A" stroke-width="20" stroke-linecap="round"/>
  <rect x="778" y="238" width="36" height="72" rx="18" fill="#1A1A1A"/>
  <path d="M294 522L268 566" stroke="#A48A6C" stroke-width="14" stroke-linecap="round"/>
  <path d="M668 522L694 566" stroke="#A48A6C" stroke-width="14" stroke-linecap="round"/>
</svg>
