<svg width="1200" height="900" viewBox="0 0 1200 900" fill="none" xmlns="http://www.w3.org/2000/svg">
  <rect width="1200" height="900" rx="48" fill="#F5F1E8"/>
  <rect x="64" y="72" width="1072" height="756" rx="36" fill="#FFFDFC" stroke="#D7D0C4" stroke-width="4"/>
  <rect x="114" y="132" width="420" height="588" rx="24" fill="#FBF7F0" stroke="#D4CABA" stroke-width="3"/>
  <rect x="164" y="196" width="320" height="124" rx="16" fill="#E2D3BC"/>
  <rect x="164" y="352" width="320" height="124" rx="16" fill="#CEC4B3"/>
  <rect x="164" y="508" width="320" height="124" rx="16" fill="#B6A792"/>
  <rect x="596" y="132" width="490" height="300" rx="28" fill="#F0EBE2" stroke="#D7D0C4" stroke-width="3"/>
  <rect x="652" y="192" width="170" height="180" rx="16" fill="#DDD4C8"/>
  <rect x="852" y="192" width="170" height="180" rx="16" fill="#C8BAA6"/>
  <rect x="596" y="470" width="490" height="250" rx="28" fill="#111111"/>
  <rect x="646" y="530" width="190" height="18" rx="9" fill="#F5F1E8"/>
  <rect x="646" y="568" width="320" height="18" rx="9" fill="#D6CEC3"/>
  <rect x="646" y="606" width="270" height="18" rx="9" fill="#D6CEC3"/>
  <rect x="646" y="650" width="164" height="40" rx="20" fill="#F5F1E8"/>
</svg>
