<svg xmlns="http://www.w3.org/2000/svg" version="1.0" preserveAspectRatio="xMidYMid meet" viewBox="237 532.9 806 214.1">

<g transform="translate(0.000000,1279.000000) scale(0.100000,-0.100000)" fill="#000000" stroke="none">
<path d="M2372 6393 l3 -1068 535 0 c482 0 543 2 613 18 160 38 279 124 333 241 l24 54 -2 763 -3 764 -28 57 c-47 96 -150 169 -302 214 -54 16 -119 18 -618 21 l-557 4 2 -1068z m812 738 c57 -38 55 -10 56 -752 0 -681 0 -687 -21 -713 -31 -40 -71 -56 -139 -56 l-60 0 0 770 0 770 68 0 c49 0 75 -5 96 -19z"/>
<path d="M3990 6390 l0 -1070 288 2 287 3 5 399 5 399 27 -84 c15 -46 70 -221 124 -389 53 -168 101 -311 106 -317 8 -10 82 -13 309 -13 164 0 300 4 303 8 5 8 -69 245 -247 796 l-44 138 49 127 c145 374 248 641 248 646 0 3 -140 4 -311 3 l-312 -3 -123 -360 -123 -360 0 573 -1 572 -295 0 -295 0 0 -1070z"/>
<path d="M5570 6119 l0 -411 213 4 c199 3 215 5 260 27 59 29 93 77 107 150 14 73 13 417 -1 483 -9 39 -22 63 -48 89 -58 58 -111 69 -338 69 l-193 0 0 -411z m341 270 c32 -17 39 -68 39 -286 0 -214 0 -214 -25 -238 -21 -22 -33 -25 -90 -25 l-65 0 0 278 c0 153 3 282 8 286 8 9 110 -2 133 -15z"/>
<path d="M6740 6120 l0 -410 90 0 90 0 2 162 3 161 89 -157 c49 -87 94 -160 101 -162 6 -3 53 -3 103 -2 l92 3 -105 173 -105 173 99 167 99 167 -91 3 c-50 1 -96 1 -102 -2 -7 -2 -50 -71 -96 -153 l-84 -148 -3 218 -2 217 -90 0 -90 0 0 -410z"/>
<path d="M6341 6375 c-67 -19 -113 -53 -135 -98 -13 -29 -16 -70 -16 -229 0 -181 1 -197 23 -238 31 -63 92 -92 205 -98 200 -11 282 49 282 206 l0 52 -90 0 -90 0 0 -48 c0 -65 -17 -87 -69 -87 -62 0 -74 19 -79 120 l-5 85 167 0 166 0 0 103 c0 132 -21 180 -93 216 -61 30 -187 38 -266 16z m163 -131 c10 -9 16 -33 16 -60 l0 -44 -75 0 -75 0 0 31 c0 32 15 69 34 81 20 14 84 8 100 -8z"/>
<path d="M7486 6379 c-56 -14 -102 -45 -128 -87 -21 -35 -23 -49 -26 -222 -4 -205 2 -241 50 -295 42 -49 114 -68 232 -63 118 5 170 31 205 102 21 42 25 65 29 195 7 233 -18 310 -116 353 -52 24 -185 33 -246 17z m158 -141 c13 -18 16 -54 16 -183 0 -88 -3 -170 -6 -182 -12 -43 -95 -53 -126 -16 -9 11 -14 62 -16 160 -6 213 4 243 78 243 29 0 43 -6 54 -22z"/>
<path d="M7897 6384 c-4 -4 -7 -157 -7 -341 l0 -333 95 0 95 0 0 249 c0 215 2 250 16 262 23 19 48 -1 54 -42 l5 -34 88 -3 87 -3 0 66 c0 118 -50 185 -140 185 -41 0 -53 -5 -79 -30 l-30 -30 -3 27 c-3 28 -3 28 -88 31 -47 1 -89 0 -93 -4z"/>
<path d="M8580 6384 c-117 -21 -160 -56 -180 -146 -21 -91 -19 -93 88 -96 l92 -3 0 60 c0 72 15 91 70 91 55 0 70 -19 70 -91 0 -56 -1 -59 -27 -65 -168 -38 -241 -65 -279 -105 -26 -28 -29 -37 -32 -113 -3 -70 0 -90 18 -125 27 -53 81 -80 162 -81 64 0 103 12 136 42 l22 21 0 -26 0 -27 95 0 95 0 0 260 c0 279 -4 303 -51 347 -14 12 -41 29 -61 37 -37 16 -173 28 -218 20z m140 -428 c0 -97 -2 -106 -22 -120 -29 -21 -87 -20 -110 1 -25 23 -26 131 0 162 14 18 99 59 125 61 4 0 7 -47 7 -104z"/>
<path d="M9248 6378 c-20 -5 -48 -20 -62 -33 l-25 -23 -3 27 c-3 26 -4 26 -95 29 l-93 3 0 -336 0 -335 95 0 95 0 0 254 0 255 26 20 c32 25 71 27 102 5 22 -15 22 -18 22 -275 l0 -259 89 0 90 0 3 255 c3 283 3 281 71 292 25 4 44 0 62 -11 l25 -16 0 -260 0 -260 96 0 95 0 -3 283 c-3 263 -4 284 -23 317 -33 55 -77 75 -165 74 -74 0 -147 -24 -165 -55 -5 -7 -16 -2 -34 14 -44 42 -124 56 -203 35z"/>
<path d="M10071 6380 c-108 -23 -165 -88 -159 -185 l3 -50 86 -3 86 -3 7 60 c8 72 24 91 76 91 51 0 70 -27 70 -96 l0 -52 -85 -21 c-185 -46 -240 -82 -256 -165 -11 -58 4 -148 30 -185 27 -37 88 -61 156 -61 62 0 100 12 133 42 l22 21 0 -26 0 -27 95 0 95 0 0 253 c0 140 -5 268 -10 289 -13 44 -66 93 -117 108 -55 15 -181 21 -232 10z m169 -420 c0 -87 -3 -103 -20 -120 -25 -25 -91 -27 -114 -4 -24 24 -22 145 3 168 17 15 104 54 124 56 4 0 7 -45 7 -100z"/>
</g>
</svg>
